Coordinates
version=1
nRows=41
nColumns=38
inDegrees=no

Units are S.I. units (second, meters, Newtons, ...)
If the header above contains a line with 'inDegrees', this indicates whether rotational values are in degrees (yes) or radians (no).

endheader
time	pelvis_tilt	pelvis_list	pelvis_rotation	pelvis_tx	pelvis_ty	pelvis_tz	hip_flexion_r	hip_adduction_r	hip_rotation_r	knee_angle_r	ankle_angle_r	subtalar_angle_r	mtp_angle_r	hip_flexion_l	hip_adduction_l	hip_rotation_l	knee_angle_l	ankle_angle_l	subtalar_angle_l	mtp_angle_l	lumbar_extension	lumbar_bending	lumbar_rotation	arm_flex_r	arm_add_r	arm_rot_r	elbow_flex_r	pro_sup_r	wrist_flex_r	wrist_dev_r	arm_flex_l	arm_add_l	arm_rot_l	elbow_flex_l	pro_sup_l	wrist_flex_l	wrist_dev_l
1.48	2.95588	1.33328	-1.41486	0.64155	0.82859	0.954824	-0.379355	0.0471843	-0.267394	0.188547	-0.249042	0	0	0.188393	-0.251333	-0.496135	0.85155	-0.31625	0	0	-0.32696	0.0243573	-0.0958333	-0.187538	-0.234319	-0.153748	0.696126	0.455474	0	0	-0.32643	-0.194037	-0.129737	0.770343	1.5708	0	0
1.49	2.95546	1.33485	-1.41507	0.641482	0.837951	0.953498	-0.388055	0.0463513	-0.266641	0.190514	-0.243109	0	0	0.190372	-0.240041	-0.509619	0.785847	-0.32275	0	0	-0.327399	0.0240532	-0.0939767	-0.186394	-0.234478	-0.156653	0.699578	0.457898	0	0	-0.32979	-0.192777	-0.131403	0.767783	1.5708	0	0
1.5	2.95481	1.33792	-1.41303	0.641215	0.847454	0.951973	-0.396287	0.0462566	-0.267955	0.191704	-0.235628	0	0	0.192364	-0.22567	-0.516118	0.715729	-0.327715	0	0	-0.325757	0.0239988	-0.0933332	-0.186171	-0.233861	-0.161247	0.702445	0.462316	0	0	-0.332389	-0.192173	-0.132188	0.764385	1.5708	0	0
1.51	2.95124	1.34225	-1.40677	0.640766	0.857028	0.950246	-0.404487	0.047453	-0.268175	0.189454	-0.233022	0	0	0.194176	-0.209067	-0.514554	0.641074	-0.328975	0	0	-0.32245	0.0245965	-0.0947997	-0.184822	-0.236207	-0.156663	0.703852	0.457497	0	0	-0.335276	-0.190894	-0.135267	0.761019	1.5708	0	0
1.52	2.94555	1.34868	-1.3967	0.64007	0.866626	0.948251	-0.408878	0.0485906	-0.271345	0.191501	-0.225873	0	0	0.195992	-0.187947	-0.497195	0.557857	-0.333928	0	0	-0.316386	0.0258256	-0.0980417	-0.182086	-0.237186	-0.155934	0.703718	0.446269	0	0	-0.337352	-0.18954	-0.138223	0.756325	1.5708	0	0
1.53	2.93392	1.35889	-1.3794	0.639151	0.876347	0.945907	-0.406422	0.0495682	-0.278533	0.200669	-0.212697	0	0	0.198351	-0.16294	-0.460417	0.464729	-0.339017	0	0	-0.304706	0.0294629	-0.0912466	-0.191404	-0.225093	-0.201882	0.711091	0.478481	0	0	-0.329321	-0.193669	-0.121263	0.742731	1.5708	0	0
1.54	2.91926	1.36793	-1.35798	0.638068	0.886078	0.943518	-0.404916	0.0511912	-0.286977	0.209766	-0.204342	0	0	0.193319	-0.135566	-0.404196	0.360218	-0.346294	0	0	-0.295855	0.0299842	-0.106514	-0.180527	-0.248911	-0.129593	0.702796	0.416753	0	0	-0.339487	-0.18692	-0.14298	0.744959	1.5708	0	0
1.55	2.89736	1.37779	-1.33053	0.636962	0.896059	0.941015	-0.401074	0.0524861	-0.295392	0.221681	-0.195718	0	0	0.183307	-0.111061	-0.341531	0.252334	-0.352396	0	0	-0.284357	0.0331772	-0.109214	-0.181933	-0.251501	-0.128711	0.703481	0.417332	0	0	-0.339361	-0.185231	-0.143928	0.738295	1.5708	0	0
1.56	2.874	1.38609	-1.3029	0.635853	0.906248	0.938603	-0.397076	0.0523777	-0.305768	0.238424	-0.185657	0	0	0.166537	-0.0906117	-0.27903	0.144596	-0.362804	0	0	-0.273771	0.0362288	-0.110926	-0.183408	-0.252772	-0.132183	0.704481	0.414641	0	0	-0.339119	-0.183368	-0.144533	0.731403	1.5708	0	0
1.57	2.84977	1.39245	-1.27589	0.634823	0.916653	0.936338	-0.3946	0.0516739	-0.315143	0.256129	-0.17691	0	0	0.149697	-0.0771397	-0.233855	0.0538959	-0.370113	0	0	-0.264647	0.0388883	-0.111149	-0.186455	-0.25463	-0.135051	0.70669	0.416125	0	0	-0.338816	-0.181403	-0.145248	0.72496	1.5708	0	0
1.58	2.82566	1.39632	-1.25069	0.633966	0.927251	0.934339	-0.39678	0.0519958	-0.317657	0.267031	-0.178425	0	0	0.139074	-0.0705723	-0.217372	0	-0.363579	0	0	-0.258092	0.0410823	-0.11113	-0.188344	-0.25476	-0.141751	0.708002	0.423487	0	0	-0.339229	-0.178443	-0.149083	0.719534	1.5708	0	0
1.59	2.8076	1.40142	-1.23206	0.633152	0.938003	0.93238	-0.391693	0.0471009	-0.330786	0.297118	-0.164852	0	0	0.140377	-0.0665614	-0.223525	0	-0.351129	0	0	-0.249546	0.0416411	-0.109113	-0.192014	-0.256536	-0.144823	0.70951	0.42163	0	0	-0.336868	-0.176499	-0.148983	0.709924	1.5708	0	0
1.6	2.79767	1.40304	-1.22248	0.632592	0.948822	0.930981	-0.3951	0.0442924	-0.33185	0.31281	-0.164635	0	0	0.137959	-0.0636453	-0.228816	0	-0.346825	0	0	-0.245629	0.0407778	-0.107832	-0.192787	-0.256381	-0.148683	0.708071	0.423162	0	0	-0.335293	-0.174806	-0.150812	0.702559	1.5708	0	0
1.61	2.79675	1.40213	-1.22233	0.632134	0.959722	0.930037	-0.403253	0.0417286	-0.327121	0.322454	-0.170974	0	0	0.133094	-0.0611412	-0.230998	0	-0.34672	0	0	-0.245305	0.0383526	-0.108832	-0.19093	-0.261841	-0.132135	0.704461	0.408057	0	0	-0.335111	-0.172349	-0.157258	0.697573	1.5708	0	0
1.62	2.80225	1.40217	-1.22905	0.631609	0.970767	0.929203	-0.408101	0.0359203	-0.324862	0.339353	-0.172262	0	0	0.129602	-0.05751	-0.229515	0	-0.348804	0	0	-0.244555	0.0346485	-0.107027	-0.191936	-0.262884	-0.130406	0.702162	0.406034	0	0	-0.332366	-0.171054	-0.159736	0.690634	1.5708	0	0
1.63	2.81731	1.40406	-1.24604	0.630951	0.982078	0.928453	-0.406165	0.0247027	-0.32848	0.372471	-0.16974	0	0	0.126441	-0.0512187	-0.224894	0	-0.362069	0	0	-0.24027	0.0310257	-0.0925089	-0.206475	-0.247409	-0.186691	0.708447	0.449304	0	0	-0.317781	-0.174903	-0.140549	0.671281	1.5708	0	0
1.64	2.83972	1.40302	-1.26943	0.630187	0.993683	0.928012	-0.411513	0.0159052	-0.325258	0.39348	-0.176901	0	0	0.123868	-0.0460228	-0.23083	0.0205317	-0.36223	0	0	-0.241344	0.0229446	-0.101399	-0.197995	-0.267935	-0.120947	0.697692	0.39311	0	0	-0.32361	-0.168066	-0.163438	0.671666	1.5708	0	0
1.65	2.86439	1.40308	-1.29463	0.629259	1.00564	0.927662	-0.415471	0.00657764	-0.320222	0.414452	-0.185588	0	0	0.122596	-0.0398422	-0.24015	0.0476815	-0.3656	0	0	-0.239396	0.0163726	-0.098603	-0.202972	-0.267291	-0.126067	0.694934	0.395754	0	0	-0.318904	-0.167155	-0.163326	0.662264	1.5708	0	0
1.66	2.89088	1.40391	-1.32081	0.628163	1.0178	0.927463	-0.418042	-0.00302439	-0.313101	0.436164	-0.195807	0	0	0.119549	-0.0316405	-0.243573	0.0632469	-0.378752	0	0	-0.235808	0.00944057	-0.0967876	-0.20728	-0.266567	-0.130268	0.689755	0.398208	0	0	-0.313837	-0.166365	-0.162417	0.65184	1.5708	0	0
1.67	2.91782	1.40583	-1.34677	0.626937	1.0301	0.927449	-0.418269	-0.0127651	-0.302602	0.459442	-0.207949	0	0	0.117146	-0.0229171	-0.247576	0.074791	-0.398364	0	0	-0.230431	0.00225016	-0.0955244	-0.211657	-0.265377	-0.133565	0.682859	0.401637	0	0	-0.307774	-0.16545	-0.161633	0.639964	1.5708	0	0
1.68	2.94422	1.40827	-1.37194	0.62561	1.04241	0.927682	-0.416663	-0.0223706	-0.284737	0.484139	-0.220523	0	0	0.115128	-0.0150674	-0.255278	0.0866381	-0.416408	0	0	-0.224181	-0.00486924	-0.0945757	-0.215556	-0.263798	-0.136684	0.674609	0.406224	0	0	-0.300748	-0.164294	-0.160806	0.626864	1.5708	0	0
1.69	2.96643	1.40989	-1.39288	0.624154	1.05457	0.928191	-0.415363	-0.0313238	-0.250127	0.509342	-0.230911	0	0	0.112105	-0.00909947	-0.263809	0.0996686	-0.424897	0	0	-0.219579	-0.0112116	-0.0968106	-0.215764	-0.264246	-0.132896	0.664855	0.404905	0	0	-0.295447	-0.161258	-0.166026	0.616731	1.5708	0	0
1.7	2.97516	1.4132	-1.39966	0.622535	1.06684	0.928726	-0.407775	-0.0388828	-0.217591	0.540153	-0.247979	0	0	0.113867	-0.00746934	-0.277653	0.121396	-0.43562	0	0	-0.211298	-0.0147464	-0.0977097	-0.218036	-0.265567	-0.12872	0.655335	0.399868	0	0	-0.287514	-0.158724	-0.166034	0.602598	1.5708	0	0
1.71	2.97194	1.41587	-1.39255	0.620735	1.07925	0.929364	-0.396163	-0.0441334	-0.199443	0.576397	-0.273099	0	0	0.116857	-0.00967276	-0.291847	0.149508	-0.440951	0	0	-0.202908	-0.0155254	-0.10029	-0.222031	-0.26747	-0.123799	0.648205	0.395617	0	0	-0.279871	-0.156065	-0.165563	0.589442	1.5708	0	0
1.72	2.96386	1.41741	-1.37973	0.61878	1.09152	0.930153	-0.380856	-0.0493089	-0.188535	0.618831	-0.30352	0	0	0.11797	-0.0126794	-0.30142	0.17692	-0.43946	0	0	-0.196034	-0.0147671	-0.104692	-0.226197	-0.269431	-0.120934	0.643567	0.392123	0	0	-0.272941	-0.15296	-0.165986	0.578858	1.5708	0	0
1.73	2.95344	1.41997	-1.36592	0.616859	1.10364	0.931004	-0.358919	-0.0557672	-0.178838	0.667513	-0.340344	0	0	0.119046	-0.015704	-0.310661	0.20372	-0.416546	0	0	-0.186285	-0.0117512	-0.0976117	-0.240726	-0.250471	-0.192219	0.646411	0.451702	0	0	-0.255944	-0.154497	-0.142551	0.558612	1.5708	0	0
1.74	2.95984	1.41833	-1.36929	0.614988	1.11537	0.932312	-0.33777	-0.0649999	-0.172648	0.718038	-0.396119	0	0	0.111334	-0.0155736	-0.31758	0.22076	-0.405395	0	0	-0.186341	-0.0133288	-0.109757	-0.236067	-0.266647	-0.139865	0.640015	0.407523	0	0	-0.255849	-0.147895	-0.160397	0.560602	1.5708	0	0
1.75	2.97836	1.41817	-1.38513	0.613221	1.12679	0.933683	-0.311395	-0.0768412	-0.168265	0.771719	-0.451835	0	0	0.102805	-0.0125779	-0.325212	0.233325	-0.39295	0	0	-0.184363	-0.0156491	-0.113464	-0.239075	-0.266132	-0.142742	0.638533	0.417935	0	0	-0.247543	-0.14619	-0.158184	0.555958	1.5708	0	0
1.76	3.00814	1.41886	-1.41211	0.611532	1.13798	0.935064	-0.281802	-0.0906846	-0.166754	0.826001	-0.508208	0	0	0.091875	-0.00629035	-0.329029	0.239085	-0.381803	0	0	-0.182004	-0.019766	-0.118278	-0.240423	-0.264894	-0.146931	0.636439	0.427205	0	0	-0.23927	-0.145396	-0.154856	0.553128	1.5708	0	0
1.77	3.04521	1.41813	-1.44705	0.609968	1.14883	0.936484	-0.251412	-0.10563	-0.165754	0.883073	-0.540239	0	0	0.0761759	0.00189309	-0.331031	0.237825	-0.377764	0	0	-0.182624	-0.024751	-0.124797	-0.240165	-0.266072	-0.143062	0.636698	0.426395	0	0	-0.233071	-0.144927	-0.153441	0.55621	1.5708	0	0
1.78	3.08121	1.41884	-1.48106	0.608471	1.15952	0.937673	-0.217503	-0.121185	-0.166605	0.941212	-0.575152	0	0	0.0600127	0.0107066	-0.330567	0.232051	-0.36929	0	0	-0.181188	-0.0296127	-0.131555	-0.240049	-0.267808	-0.138025	0.637729	0.42496	0	0	-0.227307	-0.145671	-0.148892	0.561232	1.5708	0	0
1.79	3.1121	1.42059	-1.51006	0.607034	1.17001	0.938648	-0.181504	-0.135804	-0.167671	0.998314	-0.604981	0	0	0.0438619	0.0189897	-0.327576	0.222929	-0.361056	0	0	-0.178462	-0.0335446	-0.138876	-0.239871	-0.269787	-0.133433	0.639908	0.425229	0	0	-0.222331	-0.147103	-0.142782	0.569104	1.5708	0	0
1.8	3.13275	1.42272	-1.52819	0.605635	1.18034	0.939553	-0.144908	-0.147928	-0.169021	1.05219	-0.632494	0	0	0.028337	0.0251792	-0.323184	0.212925	-0.353886	0	0	-0.175172	-0.0357215	-0.147026	-0.239782	-0.271649	-0.128772	0.642365	0.426428	0	0	-0.217306	-0.149164	-0.135222	0.578295	1.5708	0	0
1.81	3.14109	1.4248	-1.534	0.604291	1.19043	0.940483	-0.107307	-0.157888	-0.171024	1.10421	-0.653248	0	0	0.0136645	0.0287121	-0.31821	0.203289	-0.348166	0	0	-0.171931	-0.035891	-0.155513	-0.238968	-0.273433	-0.124782	0.644423	0.427156	0	0	-0.211642	-0.151591	-0.126968	0.587851	1.5708	0	0
1.82	3.13595	1.42684	-1.5264	0.602977	1.20025	0.941489	-0.0697196	-0.165122	-0.172145	1.15237	-0.657434	0	0	-1.8426e-05	0.029634	-0.31315	0.194093	-0.344022	0	0	-0.168773	-0.0338562	-0.164222	-0.237039	-0.275746	-0.120532	0.645628	0.428079	0	0	-0.204689	-0.154252	-0.117628	0.597079	1.5708	0	0
1.83	3.11899	1.43109	-1.50713	0.601707	1.2099	0.942435	-0.0311022	-0.169447	-0.170336	1.19466	-0.639145	0	0	-0.0105453	0.0286244	-0.307772	0.18538	-0.337856	0	0	-0.160575	-0.0286041	-0.160984	-0.245597	-0.257767	-0.18732	0.651066	0.491939	0	0	-0.184552	-0.161114	-0.0820562	0.591162	1.5708	0	0
1.84	3.09576	1.43351	-1.48207	0.600557	1.21934	0.943583	0.00380314	-0.171231	-0.164973	1.2306	-0.603465	0	0	-0.0248071	0.0278069	-0.29671	0.171083	-0.339274	0	0	-0.157132	-0.0247519	-0.173898	-0.236896	-0.275031	-0.134651	0.645547	0.451249	0	0	-0.178957	-0.162932	-0.0787994	0.601895	1.5708	0	0
1.85	3.06401	1.43416	-1.44865	0.599467	1.22862	0.94488	0.0357126	-0.170293	-0.158103	1.25906	-0.579291	0	0	-0.0406863	0.025582	-0.287262	0.157716	-0.337476	0	0	-0.15479	-0.0183774	-0.1797	-0.234951	-0.276615	-0.135643	0.645152	0.457238	0	0	-0.165983	-0.167108	-0.0627464	0.606289	1.5708	0	0
1.86	3.02799	1.43373	-1.40941	0.598267	1.2377	0.946159	0.0656874	-0.168023	-0.153271	1.28202	-0.558926	0	0	-0.0573674	0.0228346	-0.277037	0.144626	-0.334882	0	0	-0.15413	-0.0106656	-0.185243	-0.235101	-0.278499	-0.136773	0.647052	0.464586	0	0	-0.151247	-0.171969	-0.0451386	0.610968	1.5708	0	0
1.87	2.99076	1.43443	-1.36965	0.597174	1.24687	0.94723	0.0968923	-0.165436	-0.148491	1.29995	-0.542747	0	0	-0.0728195	0.0199813	-0.270768	0.132169	-0.331858	0	0	-0.151518	-0.00316447	-0.189559	-0.236453	-0.280395	-0.138795	0.649226	0.47242	0	0	-0.136346	-0.176846	-0.0279613	0.615451	1.5708	0	0
1.88	2.95316	1.43528	-1.32926	0.596147	1.256	0.948156	0.127344	-0.162365	-0.144819	1.31148	-0.529202	0	0	-0.0875936	0.0170723	-0.264622	0.120407	-0.328436	0	0	-0.148531	0.00433887	-0.193573	-0.238229	-0.281879	-0.14302	0.651831	0.479646	0	0	-0.121003	-0.181762	-0.0114034	0.620574	1.5708	0	0
